<svg aria-hidden="true" style="position: absolute; width: 0; height: 0; overflow: hidden;" version="1.1" xmlns="http://www.w3.org/2000/svg" xmlns:xlink="http://www.w3.org/1999/xlink">
<defs>
<symbol id="icon-in" viewBox="0 0 32 32">
<path fill="#4d5ae5" style="fill: var(--color1, #4d5ae5)" d="M32 16c-0.038 8.808-7.187 15.933-16 15.933-4.402 0-8.388-1.777-11.281-4.654l0.001 0.001c-2.875-2.892-4.653-6.879-4.653-11.28 0-8.813 7.125-15.962 15.929-16h0.004c8.837 0 16 7.163 16 16v0z"></path>
<path fill="#f4f4fd" style="fill: var(--color2, #f4f4fd)" d="M22.4 22.4v-4.72c0-2.24-0.48-4-3.2-4-1.28 0-2.16 0.64-2.48 1.36v-1.2h-2.56v8.56h2.64v-4.24c0-1.12 0.16-2.16 1.6-2.16 1.36 0 1.36 1.28 1.36 2.24v4.16h2.64zM9.84 13.84h2.64v8.56h-2.64v-8.56zM11.2 9.6c-0.88 0-1.6 0.72-1.6 1.6 0 0.8 0.72 1.52 1.6 1.52 0.8 0 1.44-0.8 1.44-1.6s-0.64-1.52-1.44-1.52z"></path>
</symbol>
<symbol id="icon-facebook" viewBox="0 0 32 32">
<path fill="#4d5ae5" style="fill: var(--color1, #4d5ae5)" d="M32 16c-0.038 8.808-7.187 15.933-16 15.933-4.402 0-8.388-1.777-11.281-4.654l0.001 0.001c-2.875-2.892-4.653-6.879-4.653-11.28 0-8.813 7.125-15.962 15.929-16h0.004c8.837 0 16 7.163 16 16v0z"></path>
<path fill="#f4f4fd" style="fill: var(--color2, #f4f4fd)" d="M18.16 11.76h1.040v-2.16h-1.6c-1.68 0-2.88 1.040-2.88 3.040v1.76h-1.84v2.24h1.84v5.76h2.32v-5.76h1.76l0.4-2.24h-2.080v-1.6c0-0.64 0.16-1.040 1.12-1.040z"></path>
</symbol>
<symbol id="icon-twitter" viewBox="0 0 32 32">
<path fill="#4d5ae5" style="fill: var(--color1, #4d5ae5)" d="M32 16c-0.038 8.808-7.187 15.933-16 15.933-4.402 0-8.388-1.777-11.281-4.654l0.001 0.001c-2.875-2.892-4.653-6.879-4.653-11.28 0-8.813 7.125-15.962 15.929-16h0.004c8.837 0 16 7.163 16 16v0z"></path>
<path fill="#f4f4fd" style="fill: var(--color2, #f4f4fd)" d="M22.4 12c-0.48 0.24-0.96 0.4-1.52 0.48 0.56-0.32 0.96-0.8 1.2-1.52-0.56 0.32-1.12 0.56-1.68 0.64-0.481-0.499-1.155-0.809-1.902-0.809-1.458 0-2.64 1.182-2.64 2.64 0 0.202 0.023 0.398 0.065 0.587l-0.003-0.018c-2.195-0.096-4.131-1.13-5.43-2.707l-0.010-0.013c-0.227 0.382-0.361 0.842-0.361 1.333 0 0.906 0.457 1.706 1.152 2.181l0.009 0.006c-0.4 0-0.8-0.16-1.2-0.32 0 1.28 0.96 2.4 2.16 2.56-0.18 0.044-0.387 0.069-0.6 0.069s-0.42-0.025-0.618-0.073l0.018 0.004c0.31 1.074 1.255 1.857 2.393 1.92l0.007 0c-0.877 0.673-1.99 1.079-3.199 1.079-0.226 0-0.449-0.014-0.667-0.042l0.026 0.003c1.152 0.769 2.569 1.227 4.092 1.227 4.109 0 7.44-3.331 7.44-7.44 0-0.15-0.004-0.299-0.013-0.447l0.001 0.020c0.48-0.32 0.96-0.8 1.28-1.36z"></path>
</symbol>
<symbol id="icon-instagram" viewBox="0 0 32 32">
<path fill="#4d5ae5" style="fill: var(--color1, #4d5ae5)" d="M32 16c-0.038 8.808-7.187 15.933-16 15.933-4.402 0-8.388-1.777-11.281-4.654l0.001 0.001c-2.875-2.892-4.653-6.879-4.653-11.28 0-8.813 7.125-15.962 15.929-16h0.004c8.837 0 16 7.163 16 16v0z"></path>
<path fill="#f4f4fd" style="fill: var(--color2, #f4f4fd)" d="M22.4 13.36c0-0.64-0.16-1.12-0.32-1.6-0.16-0.4-0.4-0.8-0.8-1.12-0.289-0.3-0.634-0.543-1.019-0.712l-0.021-0.008-1.6-0.32c-0.402-0.013-0.875-0.021-1.349-0.021-1.921 0-3.814 0.124-5.67 0.364l0.219-0.023c-0.4 0.16-0.8 0.4-1.12 0.8-0.338 0.306-0.609 0.679-0.792 1.099l-0.008 0.021c-0.080 0.4-0.24 0.8-0.24 1.52-0.025 0.555-0.040 1.207-0.040 1.861 0 1.74 0.102 3.457 0.299 5.144l-0.020-0.205 0.8 1.2c0.32 0.32 0.72 0.56 1.12 0.72l1.6 0.32c0.359 0.010 0.782 0.016 1.206 0.016 1.972 0 3.915-0.122 5.822-0.359l-0.228 0.023c0.863-0.349 1.526-1.039 1.833-1.898l0.007-0.022 0.32-1.52c0.047-0.789 0.074-1.711 0.074-2.64s-0.027-1.851-0.080-2.766l0.006 0.126zM21.2 18.56c0 0.64-0.080 0.96-0.16 1.2-0.24 0.56-0.72 1.040-1.28 1.2-1.126 0.1-2.436 0.157-3.76 0.157s-2.634-0.057-3.928-0.169l0.168 0.012c-0.24 0-0.48-0.24-0.72-0.48-0.24-0.16-0.4-0.4-0.48-0.72l-0.24-1.2c-0.016-0.452-0.026-0.983-0.026-1.516 0-1.72 0.096-3.418 0.284-5.088l-0.019 0.205c0.080-0.24 0.24-0.48 0.48-0.64 0.24-0.24 0.48-0.4 0.8-0.48 0.16-0.080 0.48-0.24 1.12-0.24 0.451-0.016 0.981-0.025 1.513-0.025 1.721 0 3.42 0.096 5.092 0.284l-0.205-0.019 0.72 0.48 0.48 0.72c0 0.24 0.16 0.56 0.16 1.2 0.046 0.765 0.073 1.659 0.073 2.56s-0.026 1.795-0.078 2.682l0.006-0.122z"></path>
<path fill="#f4f4fd" style="fill: var(--color2, #f4f4fd)" d="M16 12.72c-1.812 0-3.28 1.469-3.28 3.28s1.469 3.28 3.28 3.28v0c1.811 0 3.28-1.468 3.28-3.28s-1.468-3.28-3.28-3.28v0zM16 18.16c-1.193 0-2.16-0.967-2.16-2.16s0.967-2.16 2.16-2.16v0c1.193 0 2.16 0.967 2.16 2.16s-0.967 2.16-2.16 2.16v0zM20.24 12.56c0 0.442-0.358 0.8-0.8 0.8s-0.8-0.358-0.8-0.8v0c0-0.442 0.358-0.8 0.8-0.8s0.8 0.358 0.8 0.8v0z"></path>
</symbol>
<symbol id="icon-Client-6" viewBox="0 0 61 32">
<path fill="#8e8f99" style="fill: var(--color3, #8e8f99)" d="M31.091 15.782c-0.138-0.181-0.22-0.409-0.22-0.658 0-0.025 0.001-0.049 0.002-0.073l-0 0.003v-1.018c0-0.364 0.073-0.582 0.218-0.727 0.145-0.182 0.4-0.255 0.764-0.255s0.582 0.073 0.727 0.182c0.145 0.182 0.218 0.436 0.182 0.655v0.255h-0.582v-0.509c0-0.073-0.073-0.109-0.109-0.145-0.060-0.045-0.136-0.073-0.218-0.073v0c-0.082 0-0.158 0.027-0.219 0.073l0.001-0.001c-0.073 0.036-0.109 0.109-0.109 0.145v1.564c0 0.109 0 0.218 0.073 0.364l0.109 0.073h0.145l0.218-0.036 0.073-0.145v-0.545h0.618v0.255c0 0.218-0.036 0.473-0.182 0.655-0.145 0.145-0.364 0.218-0.727 0.218s-0.618-0.073-0.727-0.255zM33.6 15.818c-0.145-0.182-0.218-0.4-0.218-0.727v-1.091c0-0.327 0.073-0.545 0.218-0.727 0.145-0.145 0.364-0.218 0.727-0.218s0.618 0.073 0.764 0.218c0.145 0.182 0.255 0.4 0.255 0.727v1.091c0 0.327-0.109 0.545-0.255 0.727-0.145 0.145-0.364 0.218-0.727 0.218s-0.618-0.073-0.764-0.218zM34.618 15.527c0.073-0.073 0.073-0.182 0.073-0.327v-1.345c0-0.109 0-0.218-0.073-0.327l-0.073-0.073c-0.022-0.005-0.047-0.007-0.073-0.007s-0.051 0.003-0.075 0.008l0.002-0c-0.027-0.007-0.059-0.012-0.091-0.012s-0.064 0.004-0.093 0.012l0.003-0.001-0.109 0.073c-0.073 0.109-0.073 0.218-0.073 0.364v1.345c0 0.109 0 0.218 0.073 0.327l0.109 0.073c0.048 0.020 0.105 0.032 0.164 0.032s0.115-0.012 0.167-0.033l-0.003 0.001 0.109-0.073zM36.036 13.091h0.655l0.473 2.036 0.509-2.073h0.618l0.073 2.945h-0.473l-0.036-2.036-0.473 2.036h-0.364l-0.509-2.036-0.036 2.036h-0.473l0.036-2.909zM39.091 13.091h0.982c0.582 0 0.873 0.255 0.873 0.8s-0.291 0.8-0.909 0.8h-0.364v1.309h-0.582v-2.909zM39.927 14.327h0.182c0.073 0 0.145-0.073 0.182-0.109 0.073-0.073 0.109-0.182 0.073-0.327v-0.255l-0.145-0.145-0.291-0.036h-0.218v0.873h0.218zM41.818 13.091h0.727l0.655 2.909h-0.582l-0.145-0.655h-0.582l-0.145 0.655h-0.582l0.691-2.909zM42.4 14.982l-0.218-1.236-0.218 1.236h0.436zM43.745 13.091h0.436l0.836 1.673v-1.709h0.509v2.945h-0.436l-0.8-1.745v1.745h-0.545v-2.909zM46.727 14.909l-0.691-1.818h0.582l0.436 1.164 0.364-1.164h0.582l-0.691 1.818v1.091h-0.582v-1.091zM32.073 17.309v0.145h-0.509v1.2h-0.218v-1.2h-0.509v-0.145h1.236zM33.636 18.655h-0.218v-0.036l-0.145-0.364h-0.727l-0.145 0.364-0.073 0.036h-0.145l0.618-1.345h0.218l0.618 1.345zM32.618 18.145h0.582l-0.255-0.545-0.036-0.145v0.073l-0.036 0.073-0.255 0.545zM34.691 18.545h0.145c0.069-0.018 0.13-0.042 0.185-0.075l-0.004 0.002h0.073v-0.364h-0.255v-0.109h0.436v0.509c-0.114 0.075-0.249 0.127-0.395 0.145l-0.005 0h-0.182l-0.327-0.036c-0.098-0.033-0.183-0.082-0.255-0.146l0.001 0.001-0.145-0.218c-0.036-0.073-0.073-0.182-0.036-0.291l0.036-0.255 0.145-0.218 0.255-0.145c0.098-0.033 0.21-0.052 0.327-0.052 0.064 0 0.127 0.006 0.188 0.017l-0.006-0.001c0.107 0.007 0.206 0.033 0.296 0.075l-0.005-0.002 0.109 0.073-0.073 0.109h-0.145l-0.073-0.073c-0.071-0.024-0.153-0.038-0.238-0.038-0.018 0-0.037 0.001-0.055 0.002l0.002-0c-0.033-0.005-0.071-0.008-0.109-0.008s-0.076 0.003-0.113 0.009l0.004-0.001-0.182 0.145-0.145 0.145v0.473l0.145 0.182c0.091 0.071 0.207 0.113 0.333 0.113 0.024 0 0.047-0.002 0.070-0.004l-0.003 0zM36.691 18.509h0.655v0.145h-0.873v-1.345h0.218v1.2zM38.073 18.655h-0.218v-1.345h0.218v1.345zM38.836 17.309h0.036l0.909 1.055v-1.055h0.182v1.345h-0.145v-0.036l-0.945-1.018v1.055h-0.182v-1.345h0.145zM41.527 17.309v0.145h-0.727v0.436h0.582v0.145h-0.618v0.473h0.764v0.145h-0.982v-1.345h0.982zM19.345 8.982l9.382 2.291v8.073l-9.382-2.291v-8.073zM18.727 8.255v9.2l10.618 2.618v-9.2l-10.618-2.582z"></path>
<path fill="#8e8f99" style="fill: var(--color3, #8e8f99)" d="M24.436 24.291l-10.618-2.618v-9.164l10.618 2.618v9.164z"></path>
<path fill="#8e8f99" style="fill: var(--color3, #8e8f99)" d="M18.909 8.873l9.273 2.255-3.927 3.418-9.273-2.291 3.927-3.382zM18.727 8.291l-4.909 4.218 10.618 2.618 4.909-4.255-10.618-2.582zM25.018 23.782l4.327-3.782-4.327-1.091v4.836z"></path>
</symbol>
<symbol id="icon-Client-5" viewBox="0 0 61 32">
<path fill="#8e8f99" style="fill: var(--color3, #8e8f99)" d="M21.382 21.964c0.073 0.073 0.145 0.218 0.145 0.364 0 0.073 0 0.145-0.073 0.218 0 0.073-0.073 0.145-0.145 0.218-0.182 0.109-0.364 0.145-0.618 0.145h-1.055v-2.182h1.055c0.182 0 0.364 0 0.582 0.145l0.145 0.182 0.036 0.218c0 0.145 0 0.255-0.109 0.364-0.073 0.073-0.218 0.145-0.327 0.145 0.145 0.036 0.255 0.109 0.364 0.218zM20.145 21.6h0.436c0.109 0 0.182 0 0.291-0.073l0.073-0.073v-0.255l-0.073-0.109-0.291-0.073h-0.436v0.582zM20.873 22.473c0.073 0 0.109-0.073 0.109-0.109v-0.255l-0.073-0.109-0.327-0.073h-0.436v0.618h0.473c0.109 0 0.182 0 0.291-0.073zM23.491 22.909l-0.545-0.873h-0.218v0.873h-0.545v-2.182h0.945c0.218 0 0.473 0.036 0.655 0.182 0.145 0.109 0.218 0.291 0.218 0.436 0 0.182-0.036 0.364-0.145 0.473-0.109 0.145-0.291 0.218-0.473 0.255l0.618 0.873h-0.545zM22.727 21.745h0.364c0.327 0 0.436-0.109 0.436-0.364v-0.109c-0.018-0.042-0.043-0.078-0.073-0.109l0 0c-0.109-0.073-0.218-0.109-0.364-0.109h-0.364v0.691zM26.218 22.473h-0.982l-0.145 0.436h-0.509l0.909-2.182h0.582l0.909 2.182h-0.545l-0.182-0.436zM26.109 22.109l-0.364-0.909-0.364 0.909h0.727zM29.636 22.909h-0.473l-1.091-1.527v1.527h-0.509v-2.182h0.436l1.091 1.527v-1.527h0.509v2.182zM32.473 22.364c-0.109 0.182-0.255 0.327-0.436 0.4-0.218 0.109-0.473 0.145-0.727 0.145h-0.873v-2.182h0.873c0.255 0 0.509 0 0.727 0.145 0.182 0.073 0.364 0.218 0.436 0.364 0.095 0.168 0.15 0.368 0.15 0.582s-0.056 0.414-0.154 0.588l0.003-0.006zM31.891 22.327c0.142-0.139 0.229-0.332 0.229-0.545s-0.088-0.407-0.229-0.545l-0-0c-0.145-0.109-0.364-0.182-0.618-0.182h-0.364v1.455h0.364c0.255 0 0.473-0.036 0.618-0.182zM26.545 8.291s6.4 2.182 6.255 5.309v5.309s-6.4-2.182-6.255-5.309v-5.309zM38.473 17.673c1.236-0.727 2.618-1.236 4.073-1.345v-1.673c-1.681 0.573-3.074 1.626-4.056 2.994l-0.017 0.024z"></path>
<path fill="#8e8f99" style="fill: var(--color3, #8e8f99)" d="M37.745 18.182c1.018-1.818 2.727-3.2 4.8-3.891v-4.764s-9.091 3.091-8.909 7.564v7.564l1.055-0.4v-0.727c0.226-2.214 1.368-4.123 3.034-5.367l0.020-0.014z"></path>
<path fill="#8e8f99" style="fill: var(--color3, #8e8f99)" d="M36.909 20.982c0.036-0.545 0.145-1.055 0.291-1.564-1.145 1.193-1.868 2.798-1.927 4.57l-0 0.011 1.782-0.836c-0.182-0.727-0.218-1.455-0.145-2.182zM37.273 21.018c-0.073 0.655-0.036 1.309 0.109 1.964 2.473-1.345 5.273-3.418 5.164-5.891v-0.218c-1.782 0.182-3.455 0.873-4.727 1.964-0.291 0.727-0.509 1.455-0.545 2.182z"></path>
</symbol>
<symbol id="icon-Client-4" viewBox="0 0 61 32">
<path fill="#8e8f99" style="fill: var(--color3, #8e8f99)" d="M20.364 13.636c-0.836 0-1.527 0.655-1.527 1.455 0 0.727 0.691 1.382 1.564 1.382s1.564-0.618 1.564-1.418c0-0.764-0.727-1.418-1.564-1.418zM32 13.2c0-1.091-0.509-2.145-1.345-2.909-0.847-0.745-1.965-1.2-3.189-1.2-0.004 0-0.008 0-0.012 0h0.001c-1.236 0-2.364 0.436-3.236 1.2-0.836 0.764-1.309 1.818-1.309 2.909v5.964s9.091-0.909 9.091-5.964zM15.636 21.164c0 0.727 0.364 1.455 0.945 2 0.587 0.519 1.363 0.836 2.213 0.836 0.002 0 0.004 0 0.006 0h-0c0.836 0 1.636-0.291 2.218-0.836 0.565-0.489 0.926-1.2 0.945-1.997l0-0.003v-4.182s-6.327 0.618-6.327 4.182zM18.8 21.891c-0.182 0-0.327-0.036-0.473-0.109l-0.291-0.364c-0.073-0.109-0.073-0.255-0.036-0.4 0-0.145 0.109-0.291 0.218-0.4s0.255-0.182 0.436-0.218c0.145 0 0.327 0 0.473 0.073 0.145 0.036 0.255 0.145 0.364 0.255 0.079 0.115 0.126 0.257 0.126 0.41 0 0.212-0.090 0.402-0.235 0.535l-0 0-0.255 0.182-0.327 0.036zM24.582 20.545v1.564h-0.327v-1.564h0.364zM25.2 21.2v0.255h-0.727v-0.255h0.727zM25.273 20.545v0.255h-0.764v-0.255h0.764zM26.727 21.273v0.109l-0.036 0.291c0 0.109-0.073 0.182-0.145 0.255-0.036 0.073-0.109 0.109-0.218 0.145l-0.255 0.036-0.255-0.036-0.218-0.145c-0.063-0.071-0.113-0.156-0.144-0.249l-0.002-0.005-0.036-0.291v-0.109l0.036-0.291 0.145-0.255 0.218-0.145 0.255-0.036 0.255 0.036c0.109 0.036 0.182 0.073 0.218 0.145l0.145 0.255 0.036 0.291zM26.4 21.382v-0.327l-0.073-0.145c-0.054-0.067-0.136-0.11-0.228-0.11-0.009 0-0.019 0-0.028 0.001l0.001-0h-0.145l-0.109 0.109-0.073 0.145v0.509l0.073 0.182 0.109 0.109h0.291l0.109-0.109 0.073-0.182v-0.182zM27.782 21.709v-0.073l-0.145-0.145-0.182-0.036-0.182-0.073-0.182-0.109-0.109-0.145c-0.007-0.027-0.012-0.059-0.012-0.091s0.004-0.064 0.012-0.093l-0.001 0.003v-0.145l0.145-0.145 0.182-0.109c0.059-0.015 0.128-0.024 0.198-0.024 0.112 0 0.219 0.022 0.317 0.062l-0.006-0.002 0.218 0.182 0.073 0.255h-0.364v-0.145l-0.073-0.073h-0.145c-0.022-0.005-0.047-0.007-0.073-0.007s-0.051 0.003-0.075 0.008l0.002-0-0.073 0.073-0.036 0.073v0.073l0.073 0.073 0.109 0.036 0.109 0.073 0.255 0.073 0.145 0.109c0.089 0.074 0.146 0.185 0.146 0.309 0 0.006-0 0.013-0 0.019l0-0.001-0.036 0.182-0.145 0.109-0.182 0.109c-0.058 0.014-0.126 0.022-0.195 0.022-0.17 0-0.329-0.049-0.464-0.133l0.004 0.002-0.145-0.145-0.036-0.255h0.327v0.145l0.073 0.073 0.109 0.036h0.255c0.059-0.026 0.101-0.080 0.109-0.145l0-0.001zM29.018 20.545v1.564h-0.364v-1.564h0.364zM29.491 20.545v0.255h-1.273v-0.255h1.273zM30.691 21.855v0.255h-0.8v-0.291h0.8zM29.964 20.545v1.564h-0.291v-1.564h0.327zM30.582 21.2v0.218h-0.727v-0.218h0.727zM30.691 20.545v0.255h-0.8v-0.255h0.8zM30.909 20.545h0.545c0.145 0 0.218 0 0.327 0.073 0.073 0 0.145 0.073 0.182 0.145 0.073 0.073 0.073 0.145 0.073 0.255l-0.036 0.218c0 0.073-0.073 0.109-0.109 0.145l-0.182 0.109-0.109 0.036h-0.509v-0.255h0.545l0.109-0.109v-0.218l-0.109-0.073-0.145-0.036h-0.255v1.309h-0.327v-1.564zM31.745 22.109l-0.364-0.727h0.364l0.364 0.727h-0.364zM33.455 21.564h-0.4v-0.255h0.364l0.182-0.036 0.073-0.073v-0.255l-0.073-0.109c-0.041-0.023-0.089-0.036-0.141-0.036-0.002 0-0.003 0-0.005 0h-0.291v1.309h-0.364v-1.564h0.655c0.109 0 0.218 0 0.291 0.073 0.172 0.073 0.291 0.241 0.291 0.436v0l-0.073 0.255c-0.073 0.073-0.109 0.145-0.218 0.182-0.085 0.042-0.184 0.069-0.29 0.073l-0.001 0zM35.273 21.855v0.255h-0.836v-0.291h0.836zM34.545 20.545v1.564h-0.291v-1.564h0.291zM35.164 21.2v0.218h-0.727v-0.218h0.727zM35.273 20.545v0.255h-0.836v-0.255h0.836zM36.182 20.545v1.564h-0.327v-1.564h0.327zM36.655 20.545v0.255h-1.273v-0.255h1.273zM37.891 21.855v0.255h-0.836v-0.291h0.836zM37.164 20.545v1.564h-0.327v-1.564h0.327zM37.782 21.2v0.218h-0.727v-0.218h0.727zM37.891 20.545v0.255h-0.836v-0.255h0.836zM38.073 20.545h0.582c0.109 0 0.218 0 0.291 0.073 0.109 0 0.145 0.073 0.218 0.145l0.073 0.255c0 0.073 0 0.145-0.073 0.218 0 0.073-0.036 0.109-0.109 0.145l-0.182 0.109-0.109 0.036h-0.473v-0.255h0.509l0.073-0.109v-0.218l-0.073-0.073-0.145-0.036h-0.255v1.309h-0.364v-1.564zM38.945 22.109l-0.364-0.727h0.364l0.364 0.727h-0.364zM40.291 21.709v-0.073l-0.073-0.073-0.109-0.073-0.145-0.036-0.182-0.073-0.182-0.109-0.109-0.145c-0.023-0.047-0.037-0.102-0.037-0.16 0-0.008 0-0.015 0.001-0.023l-0 0.001 0.036-0.145c0-0.073 0.073-0.109 0.109-0.145l0.182-0.109c0.066-0.019 0.142-0.029 0.22-0.029 0.117 0 0.229 0.024 0.331 0.068l-0.005-0.002 0.182 0.182c0.073 0.073 0.073 0.145 0.073 0.255h-0.291l-0.036-0.145-0.109-0.073h-0.145c-0.016-0.003-0.035-0.004-0.055-0.004s-0.038 0.002-0.057 0.004l0.002-0-0.109 0.073v0.145l0.073 0.073 0.218 0.109 0.218 0.073 0.182 0.109 0.073 0.145 0.036 0.182v0.182l-0.145 0.109-0.182 0.109c-0.058 0.014-0.126 0.022-0.195 0.022-0.17 0-0.329-0.049-0.464-0.133l0.004 0.002-0.145-0.145-0.036-0.255h0.291v0.145l0.109 0.073 0.073 0.036h0.291c0.059-0.026 0.101-0.080 0.109-0.145l0-0.001z"></path>
</symbol>
<symbol id="icon-Client-3" viewBox="0 0 61 32">
<path fill="#8e8f99" style="fill: var(--color3, #8e8f99)" d="M25.018 23.709h0.036l0.073 0.109-0.218 0.145-0.327 0.036-0.291-0.036c-0.109-0.036-0.182-0.073-0.218-0.145-0.073-0.073-0.145-0.145-0.145-0.218-0.035-0.080-0.056-0.174-0.056-0.273s0.021-0.192 0.058-0.277l-0.002 0.004c0-0.073 0.073-0.145 0.145-0.182l0.255-0.145c0.087-0.029 0.187-0.046 0.291-0.046s0.204 0.017 0.298 0.048l-0.007-0.002 0.218 0.109-0.073 0.073h-0.145c-0.081-0.046-0.178-0.073-0.282-0.073-0.003 0-0.006 0-0.010 0h-0.218l-0.182 0.145-0.109 0.145-0.036 0.218 0.036 0.218c0.057 0.122 0.161 0.214 0.288 0.254l0.003 0.001h0.327c0.001 0 0.002 0 0.003 0 0.093 0 0.181-0.027 0.254-0.074l-0.002 0.001h0.036zM27.345 23.345c0 0.073 0 0.182-0.073 0.255 0 0.073-0.073 0.145-0.145 0.218-0.061 0.060-0.134 0.109-0.214 0.144l-0.005 0.002h-0.618c-0.098-0.033-0.183-0.082-0.255-0.146l0.001 0.001-0.145-0.218c-0.073-0.182-0.073-0.364 0-0.545l0.145-0.182 0.255-0.145c0.182-0.073 0.4-0.073 0.618 0 0.073 0 0.145 0.073 0.218 0.145 0.134 0.114 0.218 0.283 0.218 0.471 0 0 0 0.001 0 0.001v-0zM27.127 23.345l-0.036-0.218c-0.053-0.125-0.158-0.218-0.288-0.254l-0.003-0.001c-0.065-0.021-0.14-0.034-0.218-0.034s-0.153 0.012-0.223 0.035l0.005-0.001-0.145 0.073c-0.073 0.073-0.109 0.109-0.109 0.182-0.073 0.145-0.073 0.291 0 0.436 0.045 0.118 0.137 0.209 0.252 0.254l0.003 0.001h0.436c0.073 0 0.145-0.073 0.182-0.109l0.109-0.145 0.036-0.218zM28.909 23.564v0.036l0.073-0.036v-0.036l0.509-0.8h0.036l0.036-0.036h0.182v1.309h-0.182v-1.055l-0.545 0.8v0.036h-0.145l-0.545-0.873v1.091h-0.182v-1.309h0.218l0.545 0.836v0.036zM30.836 23.491v0.509h-0.182v-1.309h0.691l0.182 0.109 0.109 0.109v0.182c0.001 0.009 0.001 0.019 0.001 0.030 0 0.102-0.042 0.195-0.11 0.261l-0 0-0.182 0.073-0.255 0.036h-0.255zM30.836 23.345h0.436c0.073 0 0.109-0.036 0.109-0.073l0.073-0.073 0.036-0.109v-0.109l-0.073-0.073c-0.109-0.073-0.182-0.073-0.291-0.073h-0.255v0.509zM33.564 24h-0.182l-0.073-0.073-0.109-0.291h-0.727l-0.109 0.291v0.036h-0.255l0.582-1.273h0.218l0.618 1.309zM32.545 23.491h0.582l-0.255-0.509v-0.109l-0.073 0.036v0.073l-0.255 0.509zM34.4 22.691h0.036l0.873 1.018v-1.018h0.182v1.309h-0.109l-0.036-0.036-0.873-0.982v1.018h-0.182v-1.309h0.109zM36.982 23.455v0.545h-0.182v-0.545l-0.582-0.764h0.218l0.036 0.036 0.364 0.509c0.013 0.030 0.025 0.066 0.035 0.104l0.001 0.006 0.036-0.036 0.036-0.073 0.364-0.509 0.036-0.036h0.182l-0.545 0.764zM28.836 20.509h0.255c1.345-0.473 2.509-1.345 3.273-2.4 0.8-1.091 1.236-2.327 1.2-3.6l-1.491-1.273c0.291 1.345 0.145 2.764-0.436 4.036-0.619 1.358-1.579 2.469-2.771 3.255l-0.029 0.018z"></path>
<path fill="#8e8f99" style="fill: var(--color3, #8e8f99)" d="M28.291 20.473h0.036c1.382-0.836 2.4-2 2.982-3.345 0.336-0.738 0.532-1.601 0.532-2.509 0-0.609-0.088-1.197-0.252-1.753l0.011 0.044-2.145-1.818c0.687 1.127 1.093 2.489 1.093 3.947 0 2.123-0.863 4.045-2.256 5.435l-0 0zM35.491 16c-0.416 1.49-1.304 2.732-2.49 3.587l-0.019 0.013c-0.337 0.256-0.718 0.498-1.119 0.706l-0.044 0.021c1.018-0.255 1.964-0.727 2.764-1.345 0.764-0.618 1.382-1.382 1.782-2.218l-0.873-0.727z"></path>
<path fill="#8e8f99" style="fill: var(--color3, #8e8f99)" d="M35.164 15.818l-1.236-1.091c0 1.236-0.4 2.4-1.127 3.418s-1.818 1.855-3.018 2.4h0.836c1.157-0.416 2.143-1.062 2.944-1.889l0.002-0.002c0.8-0.836 1.345-1.818 1.6-2.836zM28.473 10.327l-1.455-1.236c-1.318 0.415-2.429 1.173-3.264 2.171l-0.009 0.011c-0.764 0.982-1.2 2.182-1.2 3.345 0.019 1.408 0.569 2.683 1.458 3.64l-0.003-0.003c0.982 1.091 2.327 1.818 3.818 2.145 1.345-1.418 2.145-3.127 2.255-4.945s-0.436-3.6-1.6-5.091zM38.545 15.636c0-1.6-0.727-3.091-2.036-4.218-1.344-1.083-3.072-1.738-4.954-1.738-0.881 0-1.729 0.144-2.521 0.409l0.056-0.016 8.945 7.636c0.327-0.655 0.473-1.382 0.473-2.109z"></path>
</symbol>
<symbol id="icon-Client-2" viewBox="0 0 61 32">
<path fill="#8e8f99" style="fill: var(--color3, #8e8f99)" d="M29.855 8h-0.4c-0.070-0.002-0.153-0.003-0.236-0.003s-0.166 0.001-0.248 0.003l0.012-0c-1.309 0.036-2.618 0.364-3.818 0.945l-0.182 0.073v8.073l0.364-0.145c1.188-0.404 2.558-0.654 3.982-0.691l0.018-0v1.091h-0.4c-1.838 0.093-3.54 0.594-5.044 1.413l0.062-0.031v-10.327c1.561-0.933 3.443-1.487 5.453-1.491h0.183c0.687 0.031 1.336 0.122 1.963 0.269l-0.072-0.014v1.018c-0.436-0.109-0.873-0.145-1.309-0.182h-0.364zM31.673 9.055h0.727c2.015-0.005 3.907-0.53 5.549-1.448l-0.058 0.030v10.182c-1.549 0.906-3.411 1.44-5.398 1.44-0.74 0-1.463-0.074-2.162-0.216l0.070 0.012v-10.182c0.379 0.088 0.828 0.153 1.286 0.181l0.023 0.001zM36.836 9.127l-0.364 0.109-1.018 0.327c-0.918 0.242-1.972 0.381-3.058 0.381-0.229 0-0.457-0.006-0.683-0.018l0.032 0.001h-0.291v8.255h0.218l0.727 0.073c1.565-0.009 3.040-0.384 4.347-1.044l-0.056 0.026 0.145-0.073v-8.036z"></path>
<path fill="#8e8f99" style="fill: var(--color3, #8e8f99)" d="M24.618 22.255c-0.095-0.089-0.223-0.144-0.363-0.145h-0.255c-0.214 0.077-0.364 0.278-0.364 0.515 0 0.011 0 0.022 0.001 0.032l-0-0.001v1.382c0 0.109 0 0.218 0.073 0.291 0 0.073 0.073 0.145 0.109 0.182l0.218 0.109h0.4c0.215-0.089 0.364-0.297 0.364-0.539 0-0.002 0-0.004-0-0.006v0-0.145h-0.364v0.218l-0.145 0.145h-0.073c-0.010 0.002-0.022 0.003-0.034 0.003-0.061 0-0.114-0.030-0.147-0.075l-0-0.001-0.036-0.218v-1.309l0.036-0.182c0.029-0.065 0.093-0.11 0.167-0.11 0.005 0 0.010 0 0.016 0.001l-0.001-0c0.066 0.008 0.12 0.050 0.145 0.108l0 0.001c0.073 0.036 0.073 0.109 0.073 0.182v0.109h0.364v-0.145c-0.004-0.17-0.073-0.323-0.182-0.437l0 0zM26.764 22.255c-0.111-0.089-0.254-0.143-0.409-0.143-0.075 0-0.147 0.013-0.214 0.036l0.005-0.001c-0.073 0-0.145 0.036-0.182 0.109l-0.145 0.182-0.036 0.255v1.345l0.036 0.255c0 0.073 0.073 0.145 0.145 0.182 0.036 0.073 0.109 0.109 0.182 0.109 0.065 0.025 0.14 0.040 0.218 0.040s0.153-0.015 0.222-0.041l-0.004 0.001c0.073 0 0.145-0.036 0.182-0.109 0.112-0.106 0.182-0.256 0.182-0.423 0-0.005-0-0.010-0-0.014v0.001-1.345l-0.036-0.255c0-0.073-0.073-0.145-0.145-0.182zM26.618 24.036c0 0.001 0 0.002 0 0.004 0 0.069-0.028 0.132-0.073 0.178l0-0c-0.046 0.047-0.111 0.076-0.182 0.076s-0.136-0.029-0.182-0.076l-0-0c-0.045-0.046-0.073-0.109-0.073-0.178 0-0.001 0-0.003 0-0.004v0-1.345c-0-0.001-0-0.002-0-0.004 0-0.069 0.028-0.132 0.073-0.178l-0 0c0.046-0.047 0.111-0.076 0.182-0.076s0.136 0.029 0.182 0.076l0 0c0.045 0.046 0.073 0.109 0.073 0.178 0 0.001 0 0.003-0 0.004v-0 1.345zM29.6 24.618v-2.509h-0.364l-0.436 1.345-0.473-1.345h-0.364v2.509h0.364v-1.527l0.364 1.091h0.182l0.364-1.091v1.527h0.364zM31.636 22.291l-0.218-0.145h-0.8v2.473h0.364v-0.982h0.182c0.109 0 0.218 0 0.327-0.073l0.182-0.182 0.109-0.218c0.019-0.098 0.030-0.212 0.030-0.327s-0.011-0.229-0.032-0.338l0.002 0.011-0.145-0.218zM31.455 23.018l-0.036 0.182-0.109 0.073c-0.027 0.007-0.059 0.012-0.091 0.012s-0.064-0.004-0.093-0.012l0.003 0.001h-0.145v-0.836h0.182l0.145 0.036 0.109 0.109v0.473zM33.309 22.109h-0.291l-0.545 2.509h0.364l0.109-0.545h0.473l0.109 0.545h0.364l-0.582-2.509zM32.982 23.745l0.182-0.909 0.182 0.909h-0.364zM35.636 23.636l-0.582-1.527h-0.327v2.509h0.364v-1.491l0.545 1.491h0.364v-2.509h-0.364v1.527zM37.818 22.109l-0.291 0.982-0.327-0.982h-0.364l0.509 1.455v1.055h0.364v-1.091l0.473-1.418h-0.364zM23.636 25.309h0.182v0.509h0.109v-0.509h0.182v-0.073h-0.473v0.073zM25.091 25.236l-0.218 0.582h0.109l0.036-0.145h0.255l0.036 0.145h0.145l-0.255-0.582h-0.109zM25.091 25.6l0.036-0.255 0.109 0.218h-0.182zM26.545 25.6h0.109v0.073l-0.145 0.036c-0.004 0-0.008 0.001-0.012 0.001-0.037 0-0.071-0.014-0.097-0.037l0 0-0.073-0.145c0-0.145 0.073-0.218 0.182-0.218 0.011-0.004 0.023-0.006 0.037-0.006 0.060 0 0.109 0.049 0.109 0.109 0 0.002-0 0.004-0 0.007v-0h0.109c0-0.145-0.109-0.218-0.255-0.218l-0.218 0.073c-0.048 0.052-0.078 0.122-0.078 0.198 0 0.020 0.002 0.039 0.006 0.058l-0-0.002c0 0.073 0 0.145 0.073 0.218 0.051 0.046 0.119 0.074 0.194 0.074 0.009 0 0.017-0 0.026-0.001l-0.001 0c0.109 0 0.182 0 0.255-0.109v-0.218h-0.255v0.109zM28 25.236h-0.145v0.582h0.4v-0.109h-0.255v-0.473zM29.2 25.236h-0.109v0.582h0.109v-0.582zM30.4 25.6l-0.218-0.364h-0.109v0.582h0.109v-0.364l0.218 0.364h0.109v-0.582h-0.109v0.364zM31.491 25.564h0.291v-0.109h-0.291v-0.145h0.327v-0.073h-0.436v0.582h0.436v-0.109h-0.327v-0.145zM34.182 25.455h-0.255v-0.218h-0.109v0.582h0.109v-0.255h0.218v0.255h0.109v-0.582h-0.073v0.218zM35.273 25.564h0.255v-0.109h-0.255v-0.145h0.327v-0.073h-0.436v0.582h0.436v-0.109h-0.327v-0.145zM36.727 25.564c0.109 0 0.145-0.073 0.145-0.182 0-0.004 0.001-0.008 0.001-0.012 0-0.037-0.014-0.071-0.037-0.097l0 0c-0.044-0.024-0.097-0.038-0.152-0.038-0.010 0-0.021 0-0.031 0.001l0.001-0h-0.255v0.582h0.145v-0.255h0.073l0.036 0.073 0.145 0.182h0.145l-0.073-0.109-0.145-0.145zM36.618 25.455h-0.073v-0.145h0.182c0.015 0.013 0.025 0.033 0.025 0.055s-0.010 0.041-0.025 0.054l-0 0v0.036c-0.016 0.003-0.035 0.004-0.055 0.004s-0.038-0.002-0.057-0.004l0.002 0zM37.855 25.564h0.291v-0.109h-0.291v-0.145h0.327v-0.073h-0.436v0.582h0.436v-0.109h-0.327v-0.145z"></path>
</symbol>
<symbol id="icon-Client1" viewBox="0 0 61 32">
<path fill="#8e8f99" style="fill: var(--color3, #8e8f99)" d="M25.455 8.364l2.545 2.436h-4.727v11.745h12.364v-4.473l2.545 2.4v-12.109h-12.727zM35.527 17.782l-7.236-6.909h7.236v6.909zM33.273 20.836h-8.036v-7.927h0.545v7.382h7.491v0.545zM26.836 24.764l-0.291-0.618h-0.255l0.436 0.8v0.509h0.218v-0.473l0.436-0.8h-0.255l-0.291 0.618zM27.927 24.145h0.073l0.473 1.273h-0.218l-0.109-0.291h-0.509l-0.109 0.291h-0.218l0.473-1.273h0.145zM27.709 24.945h0.364l-0.182-0.545-0.182 0.545zM29.273 24.727c-0.032-0.039-0.067-0.087-0.102-0.135l-0.007-0.010v-0.327l0.145-0.109h0.327c0.098 0.048 0.164 0.147 0.164 0.262 0 0.037-0.007 0.072-0.019 0.104l0.001-0.002-0.073 0.109-0.109 0.073-0.073 0.073 0.255 0.291c0.044-0.073 0.071-0.16 0.073-0.254v-0h0.182v0.182c-0.021 0.084-0.059 0.157-0.11 0.219l0.001-0.001 0.182 0.218h-0.291l-0.073-0.073-0.145 0.073c-0.059 0.022-0.128 0.035-0.2 0.035s-0.141-0.013-0.204-0.037l0.004 0.001c-0.062-0.034-0.111-0.084-0.145-0.144l-0.001-0.002c-0.031-0.052-0.049-0.115-0.049-0.182s0.018-0.13 0.050-0.184l-0.001 0.002 0.182-0.182zM29.382 24.873h-0.036l-0.073 0.073c-0.018 0.031-0.029 0.069-0.029 0.109s0.011 0.078 0.030 0.11l-0.001-0.001c0 0.036 0 0.073 0.073 0.073l0.109 0.036c0.082 0 0.158-0.027 0.219-0.073l-0.001 0.001-0.291-0.364zM29.418 24.618l0.073-0.036 0.109-0.073v-0.145l-0.145-0.036c-0.047 0.006-0.086 0.033-0.109 0.072l-0 0.001c-0.010 0.021-0.015 0.046-0.015 0.073s0.006 0.051 0.016 0.074l-0-0.001 0.073 0.109zM31.673 24.982h-0.218v0.182l-0.109 0.073c-0.027 0.007-0.059 0.012-0.091 0.012s-0.064-0.004-0.093-0.012l0.003 0.001h-0.109c-0.043-0.015-0.080-0.040-0.109-0.072l-0-0-0.036-0.145v-0.473l0.036-0.145 0.109-0.073h0.291l0.073 0.073 0.036 0.145h0.218c0-0.073 0-0.145-0.073-0.218 0-0.073-0.073-0.109-0.145-0.145l-0.255-0.073-0.218 0.036-0.182 0.145-0.109 0.182v0.618c0 0.073 0.073 0.145 0.109 0.182 0.085 0.109 0.216 0.179 0.363 0.182h0c0.109 0 0.218 0 0.291-0.073 0.073 0 0.109-0.073 0.145-0.145l0.073-0.218zM32.909 24.8v-0.327l-0.145-0.182-0.145-0.145h-0.436l-0.182 0.145-0.109 0.182-0.036 0.255v0.364l0.145 0.182c0.086 0.109 0.216 0.179 0.363 0.182h0l0.255-0.036 0.145-0.145 0.109-0.182 0.036-0.291zM32.727 24.727v0.291l-0.073 0.145-0.109 0.073h-0.255c-0.043-0.016-0.079-0.041-0.109-0.073l-0-0-0.073-0.145v-0.473l0.073-0.145 0.109-0.073h0.255l0.109 0.073 0.073 0.145v0.182z"></path>
</symbol>
<symbol id="icon-astronaut" viewBox="0 0 32 32">
<path fill="#4d5ae5" style="fill: var(--color1, #4d5ae5)" d="M32 4.5c-0.066-0.205-0.254-0.351-0.477-0.351-0.008 0-0.016 0-0.024 0.001l0.001-0-1.85-0.25-0.85-1.75c-0.2-0.35-0.8-0.35-1 0l-0.8 1.75-1.9 0.25c-0.276 0-0.5 0.224-0.5 0.5 0 0.163 0.078 0.308 0.199 0.399l0.001 0.001 1.4 1.35-0.35 1.9c-0.062 0.083-0.1 0.187-0.1 0.3 0 0.276 0.224 0.5 0.5 0.5 0.163 0 0.308-0.078 0.399-0.199l0.001-0.001 1.7-0.9 1.7 0.9c0.092 0.122 0.237 0.2 0.4 0.2 0.276 0 0.5-0.224 0.5-0.5 0-0.113-0.038-0.217-0.101-0.301l0.001 0.001-0.35-1.9 1.4-1.35c0.15-0.1 0.2-0.35 0.1-0.5zM29.5 5.85c-0.102 0.092-0.167 0.225-0.167 0.373 0 0.045 0.006 0.089 0.017 0.131l-0.001-0.003 0.2 1.1-1-0.5c-0.072-0.042-0.158-0.067-0.25-0.067s-0.178 0.025-0.252 0.068l0.002-0.001-1 0.5 0.2-1.15c0-0.15 0-0.35-0.15-0.45l-0.8-0.8 1.1-0.15c0.15 0 0.3-0.15 0.4-0.3l0.5-1 0.5 1c0.1 0.15 0.25 0.25 0.4 0.3l1.1 0.15-0.8 0.8zM26.15 20.5h-1.15v1.1h1.1v-1.1zM26.15 22.65h-1.15v1.050h1.1v-1zM27.2 21.6h-1.050v1.050h1.050v-1.050z"></path>
<path fill="#4d5ae5" style="fill: var(--color1, #4d5ae5)" d="M25.050 21.6h-1.050v1.050h1.050v-1.050zM22.4 26.4h-1.050v1.050h1.050v-1.050zM22.4 28.5h-1.050v1.1h1.050v-1.1zM23.5 27.5h-1.1v1h1.050v-1zM21.35 27.5h-1.1v1h1.1v-1zM16 24.25h-1.050v1.050h1.050v-1zM16 26.4h-1.050v1.050h1.050v-1.050zM17.050 25.3h-1.050v1.1h1.050v-1.1z"></path>
<path fill="#4d5ae5" style="fill: var(--color1, #4d5ae5)" d="M14.95 25.3h-1.1v1.1h1.15v-1.1zM5.85 6.1h-1.050v1.1h1.050v-1.1zM5.85 8.25h-1.050v1.050h1.050v-1zM6.95 7.2h-1.1v1.050h1.15v-1.050zM4.8 7.2h-1.050v1.050h1.050v-1.050z"></path>
<path fill="#2e2f42" style="fill: var(--color4, #2e2f42)" d="M24.7 14.15c-0.27-0.369-0.675-0.625-1.14-0.699l-0.010-0.001c-0.5-0.050-1 0.050-1.35 0.35l-1.25 1-1.9 1.4-1.35-0.55c2.392-1.133 4.016-3.527 4.016-6.3 0-3.809-3.064-6.902-6.862-6.949l-0.004-0c-3.826 0.052-6.908 3.166-6.908 6.999 0 1.371 0.394 2.65 1.075 3.729l-0.017-0.029h-2.8c-0.023-0.004-0.049-0.006-0.075-0.006s-0.052 0.002-0.078 0.006l0.003-0h-0.050l-3.25 1.6-1.9 0.9-0.050 0.050c-0.409 0.333-0.668 0.836-0.668 1.399 0 0.994 0.806 1.8 1.8 1.8 0.26 0 0.506-0.055 0.729-0.154l-0.011 0.005 1.35-0.7 2.3-1.15h1.35l-5.45 5.35-1.35 1.35c-0.304 0.299-0.492 0.715-0.492 1.175s0.188 0.876 0.491 1.175l0 0c0.299 0.304 0.715 0.492 1.175 0.492s0.876-0.188 1.175-0.491l0-0 1.35-1.3 1.7-1.3 0.9 0.9-3.1 3.1c-0.304 0.299-0.492 0.715-0.492 1.175s0.188 0.876 0.491 1.175l0 0c0.302 0.319 0.728 0.518 1.2 0.518s0.898-0.199 1.199-0.517l0.001-0.001 1.3-1.35 3.15-3.15 5.25-5.65 3.5 0.5c0.009 0.001 0.020 0.001 0.030 0.001 0.080 0 0.156-0.019 0.223-0.052l-0.003 0.001 0.1-0.050 3.2-2.15h0.1l1.2-1.25c0.336-0.327 0.545-0.784 0.545-1.29 0-0.398-0.129-0.767-0.349-1.065l0.003 0.005zM2.15 17.75c-0.2 0.1-0.4 0.15-0.6 0.050-0.294-0.087-0.505-0.355-0.505-0.672 0-0.239 0.12-0.45 0.302-0.576l0.002-0.002 1.3-0.55 0.35 0.9 0.1 0.4-1 0.5zM5.65 15.95l-1.55 0.8-0.3-0.75-0.15-0.5 2-1v1.45zM20.75 9.3c0 0.95-0.25 1.8-0.6 2.6l-4.2-1.9c0-0.6-0.35-1.1-0.8-1.4l1.5-4.85c2.35 0.75 4.1 3 4.1 5.55zM8.95 9.3c0.030-3.236 2.66-5.848 5.9-5.848 0.264 0 0.525 0.017 0.78 0.051l-0.030-0.003-1.5 4.75c-1 0-1.9 0.85-1.9 1.85-0.003 0.036-0.004 0.079-0.004 0.121 0 1.022 0.828 1.85 1.85 1.85 0.72 0 1.343-0.411 1.649-1.011l0.005-0.010 3.85 1.75c-1.089 1.424-2.788 2.334-4.7 2.334-3.235 0-5.862-2.604-5.9-5.83l-0-0.004zM14.9 10.1c0 0.5-0.35 0.8-0.8 0.8-0.5 0-0.8-0.35-0.8-0.8 0-0.4 0.35-0.8 0.8-0.8s0.8 0.4 0.8 0.8zM2.45 25.1c-0.2 0.3-0.6 0.3-0.85 0-0.095-0.106-0.153-0.246-0.153-0.4s0.058-0.294 0.153-0.401l-0 0.001 1-1 0.8 0.9-0.9 0.95zM5.7 28.9c-0.25 0.2-0.65 0.2-0.9 0-0.109-0.109-0.176-0.259-0.176-0.425s0.067-0.316 0.176-0.425l1-1 0.4 0.45 0.45 0.4-1 1zM9.2 25.4l-1.8 1.75-0.4-0.4-0.5-0.45 1.8-1.75 0.1-0.1v-0.050l0.050-0.15v-0.25c-0.025-0.058-0.059-0.108-0.1-0.15l-1.65-1.65h-0.050l-0.1-0.1h-0.45v0.050l-1.9 1.35-0.9-0.9 2.4-2.4 4.35 4.3-0.95 0.9zM16 18.4h-0.050c-0.022-0.003-0.046-0.005-0.072-0.005-0.083 0-0.162 0.020-0.231 0.056l0.003-0.001-0.1 0.1-4.75 5.15-4.3-4.2 2.8-2.8c0.195-0.073 0.331-0.258 0.331-0.475 0-0.28-0.227-0.506-0.506-0.506-0.063 0-0.123 0.011-0.178 0.032l0.004-0.001h-2.25v-1.55h3.15c1.265 1.305 3.034 2.115 4.992 2.115 0.445 0 0.88-0.042 1.301-0.122l-0.043 0.007 0.15 0.050 2.4 1 0.15 0.75 0.2 0.85-3-0.4zM20 18.55l-0.3-1.5 1.5-1.1 0.35 0.5 0.55 0.75-2.1 1.3zM23.75 15.75l-0.75 0.75-1-1.2 0.85-0.65c0.15-0.1 0.35-0.15 0.5-0.15 0.373 0.018 0.668 0.324 0.668 0.699 0 0.223-0.104 0.421-0.266 0.55l-0.001 0.001z"></path>
<path fill="#2e2f42" style="fill: var(--color4, #2e2f42)" d="M13.6 18.5l-2.15-2.1c-0.092-0.104-0.226-0.169-0.375-0.169s-0.283 0.065-0.375 0.169l-0 0.001-2.15 2.15c-0.104 0.092-0.169 0.226-0.169 0.375s0.065 0.283 0.169 0.375l0.001 0 2.15 2.15c0.092 0.104 0.226 0.169 0.375 0.169s0.283-0.065 0.375-0.169l0-0.001 2.15-2.15c0.104-0.092 0.169-0.226 0.169-0.375s-0.065-0.283-0.169-0.375l-0.001-0zM11.1 20.3l-1.4-1.4 1.4-1.35 1.35 1.35-1.35 1.4zM17.15 5.050l-0.25 1.050c0.1 0 1.75 0.5 1.75 2.15h1.050c0-2-1.65-3-2.5-3.2zM19.7 9.3h-1.050v1.1h1.050v-1.1z"></path>
</symbol>
<symbol id="icon-graf" viewBox="0 0 41 32">
<path d="M2.048 31.744h32.768c1.088 0 2.048-0.96 2.048-2.048v-2.816c0-1.088-0.96-2.048-2.048-2.048h-0.64v-16.96l3.84-3.648c0.259 0.127 0.564 0.202 0.886 0.202 1.131 0 2.048-0.917 2.048-2.048s-0.917-2.048-2.048-2.048c-1.131 0-2.048 0.917-2.048 2.048 0 0.322 0.074 0.627 0.207 0.898l-0.005-0.012-2.944 2.752v-1.6c0-1.088-0.896-2.048-2.048-2.048h-27.264c-0 0-0.001 0-0.001 0-1.131 0-2.048 0.917-2.048 2.048 0 0.022 0 0.045 0.001 0.067l-0-0.003v20.48h-0.704c-0 0-0.001 0-0.001 0-1.109 0-2.011 0.881-2.047 1.981l-0 0.003v2.752c0 1.088 0.896 2.048 2.048 2.048zM38.912 1.664c0.389 0 0.704 0.315 0.704 0.704s-0.315 0.704-0.704 0.704v0c-0.371 0-0.672-0.301-0.672-0.672s0.301-0.672 0.672-0.672v0zM4.096 4.48c0-0.384 0.32-0.64 0.64-0.64h27.328c0.384 0 0.64 0.256 0.64 0.64v2.88l-1.28 1.28v-2.816c-0.064-0.384-0.384-0.704-0.704-0.704h-24.576c-0.353 0-0.64 0.287-0.64 0.64v0 17.088c0 0.384 0.256 0.64 0.64 0.64h24.576c0.384 0 0.64-0.256 0.64-0.64v-12.352l1.408-1.28v15.68h-28.672v-20.416zM10.24 13.312c-0.005-0-0.010-0-0.016-0-1.131 0-2.048 0.917-2.048 2.048s0.917 2.048 2.048 2.048c0.554 0 1.056-0.22 1.424-0.576l-0.001 0.001 2.368 1.216c0.256 0.128 0.64 0 0.832-0.192l4.992-5.696 4.928 3.712c0.256 0.256 0.64 0.192 0.896 0l4.288-4.096v10.432h-23.104v-15.808h23.168v3.456l-4.8 4.544-4.992-3.776c-0.112-0.1-0.261-0.161-0.425-0.161-0.223 0-0.419 0.114-0.534 0.287l-0.001 0.002-5.12 5.76-1.92-0.96v-0.192c0-1.152-0.832-2.048-1.984-2.048zM10.88 15.36c0 0.353-0.287 0.64-0.64 0.64s-0.64-0.287-0.64-0.64v0c0-0.353 0.287-0.64 0.64-0.64s0.64 0.287 0.64 0.64v0zM15.040 26.24h6.72v0.704c0 0.384-0.32 0.64-0.64 0.64h-5.504c-0.353 0-0.64-0.287-0.64-0.64v0-0.64zM1.28 27.008c0-0.384 0.32-0.64 0.704-0.64h11.584v0.64c0 1.152 0.96 2.048 2.048 2.048h5.504c1.152 0 2.048-0.896 2.048-2.048v-0.64h11.648c0.384 0 0.64 0.256 0.64 0.64v2.752c0 0.384-0.256 0.64-0.64 0.64h-32.768c-0.353 0-0.64-0.287-0.64-0.64v0-2.88z"></path>
</symbol>
<symbol id="icon-watch" viewBox="0 0 31 32">
<path d="M30.8 15.3c0-0.007 0-0.015 0-0.023 0-8.45-6.85-15.3-15.3-15.3s-15.3 6.85-15.3 15.3c0 6.844 4.494 12.638 10.692 14.594l0.108 0.029c0.15 0 0.25 0 0.35-0.1 0.15-0.050 0.25-0.2 0.3-0.35l3.85-12.25c1.049-0.001 1.899-0.851 1.899-1.9s-0.851-1.9-1.9-1.9c-0.309 0-0.601 0.074-0.859 0.205l0.011-0.005-5.1-5.15c-0.1-0.067-0.224-0.106-0.356-0.106-0.359 0-0.65 0.291-0.65 0.65 0 0.133 0.040 0.256 0.108 0.359l-0.002-0.002 5.1 5.15c-0.113 0.236-0.179 0.512-0.179 0.804 0 0.606 0.283 1.145 0.725 1.493l0.004 0.003-3.7 11.65c-5.375-2.037-9.128-7.142-9.128-13.125 0-7.732 6.268-14 14-14s14 6.268 14 14c0 5.657-3.356 10.531-8.185 12.739l-0.087 0.036-0.4-1.85c-0.070-0.29-0.326-0.502-0.633-0.502-0.159 0-0.305 0.057-0.418 0.152l0.001-0.001-3.85 3.4c-0.129 0.119-0.21 0.289-0.21 0.478 0 0.291 0.191 0.538 0.455 0.62l0.005 0.001 4.85 1.6c0.046 0.012 0.099 0.018 0.154 0.018 0.359 0 0.65-0.291 0.65-0.65 0-0.024-0.001-0.048-0.004-0.071l0 0.003-0.4-1.85c5.539-2.368 9.35-7.77 9.35-14.062 0-0.013-0-0.026-0-0.040v0.002zM15.5 14.65c0.359 0 0.65 0.291 0.65 0.65s-0.291 0.65-0.65 0.65v0c-0.359 0-0.65-0.291-0.65-0.65s0.291-0.65 0.65-0.65v0zM17.6 29.55l2.2-2 0.6 2.85-2.8-0.85z"></path>
</symbol>
<symbol id="icon-vector" viewBox="0 0 30 32">
<path d="M29.75 22.1l-8.4-8.5 0.9-4.6 0.8 0.1c0.004 0 0.010 0 0.015 0 1.187 0 2.15-0.963 2.15-2.15s-0.963-2.15-2.15-2.15c-1.187 0-2.15 0.963-2.15 2.15 0 0.269 0.050 0.527 0.14 0.765l-0.005-0.015-5 0.6-8.050-8.15c-0.089-0.091-0.213-0.148-0.35-0.15h-0c-0.012-0.001-0.027-0.002-0.041-0.002-0.141 0-0.268 0.058-0.359 0.152l-1.5 1.5c-0.104 0.092-0.169 0.226-0.169 0.375s0.065 0.283 0.169 0.375l0.001 0 0.75 0.85c-1.122 2.047-1.781 4.485-1.781 7.077 0 4.179 1.715 7.958 4.479 10.671l0.002 0.002-0.050 0.5v6.25h-6.4c-1.5 0-2.7 1.2-2.7 2.65v1.050c0 0.3 0.25 0.55 0.55 0.55h24.5c0.35 0 0.55-0.25 0.55-0.5v-1.1c0-1.5-1.15-2.65-2.65-2.65h-6.4v-2.75c0.895 0.19 1.924 0.299 2.978 0.299 2.609 0 5.063-0.666 7.2-1.838l-0.078 0.039 0.8 0.85c0.1 0.1 0.25 0.15 0.4 0.15s0.25 0 0.35-0.15l1.5-1.5c0.25-0.2 0.25-0.5 0-0.75zM22.25 6.25c0.189-0.184 0.448-0.298 0.733-0.298 0.58 0 1.050 0.47 1.050 1.050 0 0.556-0.432 1.011-0.979 1.048l-0.003 0c-0.005 0-0.010 0-0.015 0-0.58 0-1.050-0.47-1.050-1.050 0-0.294 0.121-0.559 0.315-0.75l0-0zM21 9.75l-0.5 2.95-1.25-1.2 1.75-1.75zM20.4 8.85l-1.9 1.9-1.5-1.5 3.4-0.4zM23 28.8c0.9 0 1.6 0.7 1.6 1.6v0.5h-23.5v-0.5c0-0.9 0.75-1.6 1.65-1.6h20.25zM15.5 26.65v1.1h-5.25v-1.1h5.35zM10.2 25.6v-4.050c0-1.3 1.2-2.35 2.65-2.35 1.5 0 2.7 1.050 2.7 2.35v4.050h-5.35zM16.6 23.9v-2.35c0-1.9-1.65-3.4-3.75-3.4-0.015-0-0.033-0-0.050-0-1.338 0-2.514 0.691-3.191 1.736l-0.009 0.015c-2.363-2.48-3.817-5.844-3.817-9.548 0-2.3 0.561-4.47 1.553-6.379l-0.036 0.077 18.6 18.7c-2.85 1.45-6.15 1.85-9.3 1.15zM27.9 23.2l-0.75-0.7-19.55-19.7-0.75-0.8 0.75-0.75 7.95 8 13.1 13.15-0.75 0.75z"></path>
</symbol>
</defs>
</svg>
