<svg aria-hidden="true" style="position:absolute;width:0;height:0" xmlns="http://www.w3.org/2000/svg" overflow="hidden">
  <defs>
    <symbol id="icon-linkedin" viewBox="0 0 32 32">
      <path fill="var(--color1, #f4f4fd)" d="M32 32V20.3c0-5.8-1.2-10.2-8-10.2a7 7 0 00-6.2 3.4h-.1v-2.9h-6.4V32H18V21.4c0-2.8.6-5.5 4-5.5s3.5 3.2 3.5 5.7V32H32zM.5 10.6h6.7V32H.5V10.6zM3.8 0C1.8 0 0 1.7 0 3.8s1.7 4 3.8 4c2.2 0 3.9-1.8 3.9-4C7.7 1.8 6 0 3.8 0z"/>
    </symbol>
    <symbol id="icon-facebook" viewBox="0 0 18 32">
      <path fill="var(--color1, #f4f4fd)" d="M13.3 5.3h3v-5C15.7.1 14 0 12 0 7.8 0 4.9 2.6 4.9 7.5V12H.2v5.7H5V32h5.7V17.7h4.5l.7-5.7h-5.2V8c0-1.6.4-2.7 2.7-2.7z"/>
    </symbol>
    <symbol id="icon-twitter" viewBox="0 0 37 32">
      <path fill="var(--color1, #f4f4fd)" d="M36.6 4.7c-1.4.6-2.8 1-4.3 1.1 1.5-.9 2.7-2.3 3.2-4.1a15 15 0 01-4.7 1.8A7.5 7.5 0 0018 10.4 21.2 21.2 0 012.5 2.5a7.5 7.5 0 002.3 10c-1.2 0-2.3-.3-3.3-.9 0 3.7 2.6 6.8 6 7.5A7.5 7.5 0 014 19c1 3 3.7 5.2 7 5.3a15 15 0 01-11.1 3 21.2 21.2 0 0032.8-19 15 15 0 003.8-3.7z"/>
    </symbol>
    <symbol id="icon-instagram" viewBox="0 0 32 32">
      <path fill="var(--color1, #f4f4fd)" d="M32 9.4c-.1-1.7-.4-2.9-.8-3.9s-1-2-1.8-2.8A7.9 7.9 0 0026.5.8c-1-.4-2.1-.6-3.8-.7A109.5 109.5 0 005.6.8c-1 .4-2 1-2.9 1.9C2 3.5 1.3 4.5 1 5.5.5 6.5.2 7.7.2 9.4a109.5 109.5 0 00.7 17c.4 1.2 1 2.1 1.8 3 .8.7 1.8 1.4 2.9 1.8 1 .4 2.2.6 3.9.7a117.2 117.2 0 0017-.7 8.2 8.2 0 004.7-4.7c.4-1 .7-2.2.8-3.9V16 9.4zm-3 13c0 1.6-.2 2.5-.5 3a5.3 5.3 0 01-3 3c-.6.3-1.4.6-3 .6a112.7 112.7 0 01-15.9-.5 5 5 0 01-1.8-1.2 5 5 0 01-1.2-1.9c-.2-.5-.5-1.4-.5-3a112.7 112.7 0 01.5-15.8c.3-.7.7-1.3 1.2-1.9a5 5 0 011.8-1.1c.6-.3 1.5-.5 3-.6a112.7 112.7 0 0115.9.6 5 5 0 011.8 1.1 5 5 0 011.2 1.9c.3.5.5 1.4.6 3a112.7 112.7 0 010 12.9z"/>
      <path fill="var(--color1, #f4f4fd)" d="M16 7.8a8.2 8.2 0 100 16.4 8.2 8.2 0 000-16.4zm0 13.5a5.3 5.3 0 110-10.6 5.3 5.3 0 010 10.6zM26.5 7.5a2 2 0 11-3.8 0 2 2 0 013.8 0z"/>
    </symbol>
    <symbol id="icon-antenna" viewBox="0 0 32 32">
      <path fill="var(--color2, #2e2f42)" d="M30.8 22.1l-8.5-8.5 1-4.6.7.1a2.2 2.2 0 10-2-1.4l-5 .6L9 .1 8.7 0c-.2 0-.4 0-.4.2L6.8 1.7a.5.5 0 000 .7l.7.9A15 15 0 0010.2 21v6.7H3.8A2.7 2.7 0 001 30.4v1c0 .3.2.6.5.6h24.5c.4 0 .6-.3.6-.5v-1.1c0-1.5-1.2-2.7-2.7-2.7h-6.4V25a15 15 0 0010.2-1.5h-.1l.8.8.4.2c.1 0 .3 0 .4-.2l1.5-1.5c.2-.2.2-.5 0-.7zM23.1 6.2a1 1 0 11.9 1.9 1 1 0 01-.8-1.8zM22 9.8l-.5 3-1.3-1.2L22 9.7zm-.6-.8l-1.9 1.8L18 9.3l3.4-.5zM24 28.8c.9 0 1.6.7 1.6 1.6v.5H2.1v-.5c0-.9.8-1.6 1.7-1.6H24zm-7.5-2.2v1.1h-5.3v-1h5.4zm-5.3-1v-4c0-1.4 1.2-2.4 2.6-2.4 1.5 0 2.7 1 2.7 2.4v4h-5.3zm6.4-1.7v-2.4c0-1.9-1.6-3.4-3.8-3.4-1.3 0-2.5.7-3.2 1.8a13.8 13.8 0 01-2.3-16v.2l18.6 18.7a13.9 13.9 0 01-9.3 1.1zm11.3-.7l-.8-.7L8.6 2.8 7.8 2l.8-.7 8 8 13 13.1-.7.8z"/>
      <path fill="var(--color3, #4d5ae5)" d="M13.9 20.3a1.6 1.6 0 100 3.2 1.6 1.6 0 100-3.3zm.3 2H14a.5.5 0 01-.2-1h.2a.5.5 0 01.3 1z"/>
    </symbol>
    <symbol id="icon-astronaut" viewBox="0 0 32 32">
      <path fill="var(--color3, #4d5ae5)" d="M32 4.5c0-.2-.3-.4-.5-.4L29.6 4l-.8-1.7c-.2-.4-.8-.4-1 0L27 3.9l-1.9.3a.5.5 0 00-.3.8l1.4 1.4-.3 1.9a.5.5 0 00.7.6l1.7-.9 1.7.9a.5.5 0 10.8-.6l-.3-1.9L31.9 5c.1 0 .2-.3.1-.4zm-2.5 1.3a.5.5 0 00-.2.6l.2 1-1-.4a.5.5 0 00-.5 0l-1 .5.2-1.2-.1-.4-.8-.8 1.1-.2.4-.3.5-1 .5 1c.1.2.2.3.4.3l1.1.2-.8.8zm-3.4 14.7H25v1.1h1.1v-1.1zm0 2.1H25v1.1h1.1v-1zm1.1-1h-1v1h1v-1zM25 21.6h-1v1h1v-1zm-2.6 4.8h-1v1h1v-1zm0 2.1h-1v1.1h1v-1.1zm1.1-1h-1.1v1h1v-1zm-2.1 0h-1.1v1h1v-1zM16 24.2h-1v1.1h1v-1zm0 2.2h-1v1h1v-1zm1-1.1h-1v1.1h1v-1.1zM15 25.3h-1.2v1.1H15v-1.1zM5.8 6.1h-1v1.1h1V6.1zm0 2.2h-1v1h1v-1zM7 7.2H5.8v1H7v-1zm-2.2 0h-1v1h1v-1z"/>
      <path fill="var(--color2, #2e2f42)" d="M24.7 14.2c-.3-.4-.7-.7-1.1-.7-.6-.1-1 0-1.4.3l-1.3 1-1.9 1.4-1.3-.6a7 7 0 00-2.8-13.2A7 7 0 009 13.1H6l-3.3 1.6-1.9.9a1.8 1.8 0 001.9 3.1L4 18l2.3-1.1h1.3l-5.4 5.3-1.4 1.4a1.6 1.6 0 000 2.3 1.6 1.6 0 002.4 0l1.3-1.3 1.7-1.3 1 .9L4 27.3a1.6 1.6 0 000 2.4 1.6 1.6 0 002.4 0l1.3-1.4 3.2-3.1 5.2-5.7 3.5.5h.3l.1-.1 3.2-2.1h.1l1.2-1.3a1.8 1.8 0 00.2-2.4zM2.1 17.8h-.6a.7.7 0 01-.2-1.2l1.3-.6.4.9.1.4-1 .5zm3.6-1.9l-1.6.8-.3-.7-.1-.5 2-1v1.4zm15-6.6c0 1-.2 1.8-.5 2.6L15.8 10c0-.6-.3-1.1-.8-1.4l1.5-4.8a6 6 0 014.1 5.5zM9 9.3a5.9 5.9 0 016.7-5.8l-1.5 4.8a2 2 0 00-1.9 2 1.8 1.8 0 003.5.8l3.9 1.7A5.9 5.9 0 018.9 9.3zm6 .8c0 .5-.3.8-.8.8s-.8-.3-.8-.8c0-.4.3-.8.8-.8s.8.4.8.8zm-12.4 15c-.2.3-.6.3-.9 0a.6.6 0 010-.8l1-1 .8.9-.9 1zm3.2 3.8c-.3.2-.7.2-.9 0a.6.6 0 010-.9l1-1 .4.5.5.4-1 1zm3.5-3.5l-1.8 1.8-.4-.5-.5-.4 1.8-1.8h.1V24v-.1l-1.7-1.7-.2-.1h-.4l-1.9 1.4-.9-.9 2.4-2.4 4.3 4.3-.9.9zm6.8-7h-.4v.2l-4.8 5.1-4.3-4.2 2.8-2.8a.5.5 0 10-.4-1H6.8v-1.5h3.2a7 7 0 006.2 2h.2l2.4 1 .1.8.2.9-3-.4zm4 .2l-.3-1.6 1.5-1 .3.5.6.7-2.1 1.3zm3.8-2.9l-.8.8-1-1.2.8-.7.6-.1a.7.7 0 01.4 1.2z"/>
      <path fill="var(--color2, #2e2f42)" d="M13.6 18.5l-2.1-2.1a.5.5 0 00-.8 0l-2.1 2.2a.5.5 0 000 .7l2.1 2.2a.5.5 0 00.8 0l2.1-2.2a.5.5 0 000-.8zm-2.5 1.8l-1.4-1.4 1.4-1.3 1.4 1.3-1.4 1.4zm6-15.3L17 6.2c.1 0 1.8.5 1.8 2.2h1c0-2-1.6-3-2.5-3.3zm2.6 4.3h-1v1.1h1V9.3z"/>
    </symbol>
    <symbol id="icon-Client-2" viewBox="0 0 61 32">
      <path fill="var(--color4, #8e8f99)" d="M29.9 8h-.4a8.6 8.6 0 00-.5 0c-1.3 0-2.6.4-3.8 1H25v8h.3c1.2-.5 2.6-.7 4-.7v1H29c-1.8.1-3.5.6-5 1.5V8.3c1.6-1 3.5-1.5 5.5-1.5h.2c.7 0 1.3.1 2 .3h-.1v1L30.2 8h-.4zm1.8 1h.7c2 0 4-.5 5.5-1.4v10.2a10.7 10.7 0 01-7.6 1.2h.1V9l1.3.2zm5.1.1l-.3.1-1 .4a12.2 12.2 0 01-3.8.3h-.2v8.3H32.4c1.6 0 3-.3 4.3-1h.1v-8zM24.6 22.3a.5.5 0 00-.3-.2H24a.5.5 0 00-.4.6V24l.1.3.1.2.2.1h.4c.3 0 .4-.3.4-.5v-.2h-.4v.2l-.1.2h-.1-.2v-1.8a.2.2 0 01.2-.1l.2.1V22.8h.4v-.1c0-.2 0-.4-.2-.5zm2.2 0a.7.7 0 00-.7-.2l-.1.2-.2.1V24.3l.2.2h.1a.6.6 0 00.5 0h.2l.1-.4v-1.7l-.1-.1zm-.2 1.7v.2a.3.3 0 01-.4 0v-1.5-.2a.3.3 0 01.3 0l.1.2V24zm3 .6v-2.5h-.4l-.4 1.4-.5-1.4H28v2.5h.3v-1.5l.4 1h.2l.3-1v1.5h.4zm2-2.3l-.2-.2h-.8v2.5h.4v-1h.5l.2-.2v-.2a1.8 1.8 0 000-.7v-.2zm-.1.7v.2H31v-.8H31.3l.1.2v.5zm1.8-.9H33l-.5 2.5h.3l.1-.5h.5l.1.5h.4l-.6-2.5zm-.3 1.6l.2-.9.1 1H33zm2.6 0l-.5-1.6h-.4v2.5h.4v-1.5l.5 1.5h.4v-2.5h-.4v1.5zm2.2-1.6l-.3 1-.3-1h-.4l.5 1.5v1h.4v-1l.5-1.5h-.4zm-14.2 3.2h.2v.5h.1v-.5h.2-.5zm1.5 0l-.2.5.1-.1h.3v.1h.2l-.3-.6h-.1zm0 .3v-.3l.1.3h-.1zm1.4 0h.2l-.2.1h-.1v-.2l.1-.2.2.1c0-.1 0-.2-.2-.2h-.2a.3.3 0 000 .3v.2l.2.1h.3v-.3h-.3v.1zm1.5-.4h-.1v.6h.4-.3v-.6zm1.2 0h-.1v.6h.1v-.6zm1.2.4l-.2-.4H30v.6-.3l.3.3h.1v-.6h-.1v.4zm1 0h.4v-.1h-.3v-.2h.3-.4v.5h.4-.3v-.2zm2.8-.1h-.3v-.3.6-.2h.2v.2h.2v-.6h-.1v.3zm1 0h.3-.2v-.2h.3-.4v.5h.4-.3v-.2zm1.5 0l.2-.1v-.1h-.5v.5h.1v-.2h.1l.2.2h.1l-.2-.2zm0 0h-.2v-.2h.2v.1zm1.2 0h.2-.2v-.2h.3-.5v.5h.5-.3v-.2z"/>
    </symbol>
    <symbol id="icon-Client-3" viewBox="0 0 61 32">
      <path fill="var(--color4, #8e8f99)" d="M25 23.7l.1.1-.2.2h-.6l-.2-.2-.2-.2a.7.7 0 010-.6l.2-.1.2-.2a1 1 0 01.6 0l.2.1v.1h-.2-.7v.2l-.1.2v.3l.3.2h.6zm2.3-.4v.3l-.2.2-.2.2h-.6l-.3-.2-.1-.2v-.5l.1-.2.3-.2h.6l.2.2c.2 0 .2.3.2.4zm-.2 0v-.2l-.3-.2a.7.7 0 00-.4 0h-.2v.2c-.2.2-.2.3 0 .5 0 0 0 .2.2.2H27v-.2l.1-.3zm1.8.3l.6-.9h.2V24h-.1v-1l-.6.7H29l-.6-.8V24h-.2v-1.3h.3l.5.8zm2-.1v.5h-.2v-1.3h.6l.2.1.1.1v.5h-.8zm0-.2h.4l.2-.1V23l-.4-.2H31v.5zm2.7.7h-.2l-.2-.4h-.7l-.1.3H32l.6-1.2h.2l.6 1.3zm-1-.5h.5L33 23v-.1h-.1l-.3.6zm1.8-.8l1 1v-1V24l-1-1v1h-.1v-1.3h.1zm2.6.8v.5h-.2v-.5l-.6-.8h.2l.4.5v.1h.1l.4-.6h.2l-.5.8zm-8.2-3h.3a6.9 6.9 0 003.3-2.4c.8-1 1.2-2.3 1.2-3.6L32 13.2c.3 1.4.1 2.8-.5 4a7.7 7.7 0 01-2.7 3.3z"/>
      <path fill="var(--color4, #8e8f99)" d="M28.3 20.5c1.4-.9 2.4-2 3-3.4a6 6 0 00.3-4.2l-2.1-1.8c.6 1.1 1 2.5 1 4 0 2-.8 4-2.2 5.4zm7.2-4.5a6.6 6.6 0 01-2.5 3.6l-1.1.7a6.5 6.5 0 004.5-3.6l-1-.7z"/>
      <path fill="var(--color4, #8e8f99)" d="M35.2 15.8l-1.3-1c0 1.2-.4 2.3-1.1 3.3s-1.8 1.9-3 2.4h.8c1.2-.4 2.2-1 3-1.8.8-.9 1.3-1.9 1.6-2.9zm-6.7-5.5L27 9.1a7 7 0 00-3.2 2.2c-.8 1-1.3 2.2-1.3 3.3 0 1.4.6 2.7 1.5 3.7 1 1 2.3 1.8 3.8 2.1 1.4-1.4 2.2-3.1 2.3-5s-.5-3.5-1.6-5zm10 5.3c0-1.6-.7-3-2-4.2a7.9 7.9 0 00-7.5-1.3l9 7.6c.4-.6.5-1.4.5-2.1z"/>
    </symbol>
    <symbol id="icon-Client-4" viewBox="0 0 61 32">
      <path fill="var(--color4, #8e8f99)" d="M20.4 13.6c-.9 0-1.6.7-1.6 1.5 0 .7.7 1.4 1.6 1.4S22 15.9 22 15c0-.8-.8-1.5-1.6-1.5zm11.6-.4a4 4 0 00-1.3-3c-.9-.7-2-1.1-3.2-1.1-1.3 0-2.4.4-3.3 1.2a4 4 0 00-1.3 2.9v6s9.1-1 9.1-6zm-16.4 8c0 .7.4 1.4 1 2 .6.5 1.3.8 2.2.8.8 0 1.6-.3 2.2-.8.6-.5 1-1.2 1-2V17s-6.4.6-6.4 4.2zm3.2.7a1 1 0 01-.5-.1l-.3-.4V21l.2-.4.5-.2h.4l.4.3a.7.7 0 01-.1 1l-.3.2h-.3zm5.8-1.4v1.6h-.3v-1.6h.3zm.6.7v.3h-.7v-.3h.7zm0-.7v.3h-.7v-.3h.8zm1.5.8v.4s0 .2-.2.2l-.2.2h-.5l-.2-.2-.1-.2V21l.1-.3.2-.1h.5l.2.1.2.3v.3zm-.3 0V21l-.3-.1h-.2v.1l-.2.2v.5l.1.1.1.2h.3l.1-.2.1-.1v-.2zm1.4.4l-.2-.2h-.1l-.2-.1-.2-.1-.1-.2V20.7l.1-.1.2-.2a.8.8 0 01.5 0l.2.3.1.2h-.4v-.2H27.4l-.1.1v.2h.2v.1h.3l.2.2.1.3v.2l-.2.1-.2.1h-.1L27 22l-.2-.1v-.3h.3v.1l.1.1h.4zm1.2-1.2v1.6h-.3v-1.6h.3zm.5 0v.3h-1.3v-.3h1.3zm1.2 1.4v.2h-.8v-.3h.8zm-.7-1.4v1.6h-.3v-1.6h.3zm.6.7v.2h-.7v-.2h.7zm0-.7v.3H30v-.3h.8zm.3 0h.6l.3.1.2.2v.4l-.1.2h-.2l-.1.1h-.5v-.2h.5l.1-.1v-.3h-.5V22H31v-1.5zm.8 1.6l-.3-.7h.3l.4.7h-.4zm1.8-.5H33v-.3h.5v-.4l-.1-.1h-.3v1.3h-.4v-1.6h.7l.2.1c.2 0 .3.3.3.5v.2c-.1 0-.1.2-.3.2h-.2zm1.8.3v.2h-.9v-.3h.9zm-.8-1.4v1.6h-.2v-1.6h.2zm.7.7v.2h-.8v-.2h.8zm0-.7v.3h-.8v-.3h.9zm1 0v1.6h-.3v-1.6h.3zm.5 0v.3h-1.3v-.3h1.3zm1.2 1.4v.2H37v-.3h.8zm-.7-1.4v1.6h-.4v-1.6h.4zm.6.7v.2H37v-.2h.7zm0-.7v.3h-.7v-.3h.8zm.3 0h.6l.2.1c.2 0 .2 0 .3.2v.4l-.1.2h-.2l-.1.1h-.5v-.2h.5v-.4h-.4V22H38v-1.5zm.8 1.6l-.3-.7h.3l.4.7H39zm1.4-.4v-.1l-.2-.1H40l-.2-.1-.2-.1-.1-.2V20.8l.1-.1.2-.2h.5l.2.3v.2h-.2V21l-.2-.1H40h-.2v.2l.3.2h.2l.2.2v.6l-.2.1H40l-.5-.1-.1-.1v-.3h.2v.1l.1.1h.4z"/>
    </symbol>
    <symbol id="icon-Client-5" viewBox="0 0 61 32">
      <path fill="var(--color4, #8e8f99)" d="M21.4 22l.1.3v.2l-.2.3-.6.1h-1v-2.2h1c.2 0 .4 0 .6.2l.1.2v.5l-.4.2c.2 0 .3 0 .4.2zm-1.3-.4h.8V21H20v.5zm.8.9V22h-.8v.5h.8zm2.6.4l-.6-.9h-.2v1h-.5v-2.3h1c.1 0 .4 0 .6.2l.2.4-.1.5-.5.3.6.8h-.5zm-.8-1.2h.4c.3 0 .4 0 .4-.3v-.1-.1a.6.6 0 00-.4-.1h-.4v.6zm3.5.8h-1l-.1.4h-.5l.9-2.2h.6L27 23h-.6l-.1-.4zm0-.4l-.5-.9-.3 1h.7zm3.4.8h-.4L28 21.4v1.5h-.5v-2.2h.4l1 1.6v-1.6h.6V23zm2.9-.5a1 1 0 01-.5.4l-.7.1h-.9v-2.2h1c.2 0 .4 0 .6.2.2 0 .4.2.5.3l.1.6-.1.6zm-.6 0a.8.8 0 000-1.2 1 1 0 00-.6-.1h-.4v1.4h.4c.2 0 .4 0 .6-.2zM26.5 8.2s6.4 2.2 6.3 5.3v5.3s-6.4-2.2-6.3-5.3V8.3zm12 9.4a9.5 9.5 0 014-1.4v-1.6c-1.6.5-3 1.6-4 3z"/>
      <path fill="var(--color4, #8e8f99)" d="M37.7 18.2c1-1.8 2.8-3.2 4.8-4V9.6s-9 3.1-8.9 7.6v7.6l1-.4v-.8a7.6 7.6 0 013.1-5.3z"/>
      <path fill="var(--color4, #8e8f99)" d="M37 21c0-.6 0-1 .2-1.6a7 7 0 00-2 4.6l1.9-.8c-.2-.8-.3-1.5-.2-2.2zm.3 0v2c2.6-1.4 5.4-3.4 5.2-6V17c-1.7.2-3.4.8-4.7 2-.3.7-.5 1.4-.5 2.1z"/>
    </symbol>
    <symbol id="icon-Client-6" viewBox="0 0 61 32">
      <path fill="var(--color4, #8e8f99)" d="M31 15.8a1 1 0 01-.1-.7v-1c0-.4 0-.6.2-.8.1-.2.4-.2.8-.2l.7.1.2.7v.2h-.6v-.5l-.1-.1h-.5v2.1h.5v-.7h.7v.3c0 .2 0 .4-.2.6-.2.2-.4.2-.7.2s-.7 0-.8-.2zm2.6 0a1 1 0 01-.2-.7V14c0-.3 0-.5.2-.7.1-.2.4-.2.7-.2l.8.2.2.7v1c0 .4 0 .6-.2.8-.2.2-.4.2-.7.2l-.8-.2zm1-.3V14v-.4h-.1H34.2c-.2.1-.2.2-.2.4v1.3l.1.4h.1a.4.4 0 00.3 0h.2zm1.4-2.4h.7l.5 2 .5-2h.6V16H38v-2l-.5 2H37l-.5-2v2H36v-3zm3 0h1c.7 0 1 .2 1 .8s-.3.8-1 .8h-.3V16H39v-3zm1 1.2H40.2c0-.2.1-.3 0-.4v-.4H39.6v.8h.2zm1.8-1.2h.7l.7 2.9h-.6l-.1-.7h-.6l-.2.7h-.5l.7-3zm.6 1.9l-.2-1.3L42 15h.4zm1.3-2h.5l.8 1.8V13h.5V16h-.4l-.8-1.7V16h-.6v-3zm3 2l-.7-2h.6l.5 1.3.3-1.2h.6l-.7 1.8V16h-.6v-1zm-14.6 2.3v.2h-.5v1.2h-.3v-1.2h-.5v-.2h1.3zm1.5 1.4h-.2l-.1-.4h-.8l-.1.3h-.2l.6-1.3h.2l.6 1.4zm-1-.6h.6l-.3-.5v-.1.1l-.3.5zm2 .4h.4V18h-.2V18h.5v.5a1 1 0 01-.4.2h-.5l-.3-.2-.1-.2v-.6l.1-.2.3-.2a1 1 0 01.5 0h.3v.2H35a.8.8 0 00-.3 0 .7.7 0 00-.2 0l-.2.1-.2.1v.5l.2.2.3.1zm2 0h.7v.2h-.8v-1.4h.2v1.2zm1.5.2h-.2v-1.4h.2v1.4zm.7-1.4l1 1v-1h.2v1.4h-.2l-1-1.1v1h-.1v-1.3h.1zm2.7 0v.2h-.7v.4h.6v.1h-.6v.5h.7v.2h-1v-1.4h1zM19.3 9l9.4 2.3v8l-9.4-2.2V9zm-.6-.7v9.2L29.3 20v-9.2L18.7 8.3z"/>
      <path fill="var(--color4, #8e8f99)" d="M24.4 24.3l-10.6-2.6v-9.2l10.6 2.6v9.2z"/>
      <path fill="var(--color4, #8e8f99)" d="M19 8.9l9.2 2.2-4 3.4-9.2-2.2 4-3.4zm-.3-.6l-4.9 4.2 10.6 2.6 5-4.2-10.7-2.6zM25 23.8l4.3-3.8-4.3-1v4.7z"/>
    </symbol>
    <symbol id="icon-Client1" viewBox="0 0 61 32">
      <path fill="var(--color4, #8e8f99)" d="M25.5 8.4l2.5 2.4h-4.7v11.7h12.3v-4.4l2.6 2.4V8.4H25.5zm10 9.4l-7.2-7h7.2v7zm-2.2 3h-8V13h.5v7.4h7.5v.5zm-6.5 4l-.3-.7h-.2l.4.8v.6h.2V25l.5-.8H27l-.3.6zM28 24h.1l.5 1.3h-.2l-.2-.3h-.5v.3h-.3l.5-1.3h.1zm-.2.8h.4l-.2-.5-.2.5zm1.6-.2l-.1-.1v-.3l.1-.2h.3a.3.3 0 01.2.4v.1h-.2v.2l.2.3v-.3h.2v.4l.1.2h-.5a.6.6 0 01-.4 0l-.1-.1V25v-.2l.1-.2zm0 .2a.2.2 0 000 .3h.4l-.3-.4zm.1-.3h.2v-.2h-.1-.2v.1l.1.2zm2.3.4h-.2v.2H31h-.2V24.4h.5v.1h.3l-.1-.2-.1-.1h-.7l-.1.3v.6l.1.2.4.2.3-.1.1-.2V25zm1.2-.2v-.3l-.1-.2-.2-.2h-.4l-.2.2-.1.2V25l.1.2.4.2h.2l.2-.2V25l.1-.3zm-.2 0v.4h-.4-.1V24.4h.5V24.7z"/>
    </symbol>
    <symbol id="icon-clock" viewBox="0 0 32 32">
      <path fill="var(--color2, #2e2f42)" d="M31.3 15.3a15.3 15.3 0 10-20 14.6h.2l.3-.1c.2 0 .3-.2.3-.3L16 17.1a1.9 1.9 0 10-.9-3.6l-5-5.2a.6.6 0 00-.9.9l5 5.2-.1.8c0 .6.3 1.1.7 1.5l-3.7 11.7a14 14 0 1110.7-.4h-.1l-.4-1.8a.7.7 0 00-1-.4l-3.9 3.4a.6.6 0 00.2 1.1l4.9 1.6h.2a.6.6 0 00.6-.7l-.4-1.9c5.5-2.3 9.4-7.7 9.4-14zM16 14.6a.6.6 0 110 1.4.6.6 0 110-1.3zm2.1 15l2.2-2 .6 2.8-2.8-.8z"/>
      <path fill="var(--color3, #4d5ae5)" d="M15.3 3.2v1.3a.6.6 0 101.3 0V3.2a.6.6 0 10-1.3 0zM4 14.6a.6.6 0 100 1.3h1.3a.6.6 0 100-1.3H3.9zM28.1 16a.6.6 0 100-1.3h-1.3a.6.6 0 100 1.3h1.3z"/>
    </symbol>
    <symbol id="icon-diagram" viewBox="0 0 32 32">
      <path fill="var(--color3, #4d5ae5)" d="M15 15h1v4.8h-1V15zm4.2 2.1h1v2.6h-1v-2.6zm-8.5 1.6h1v1h-1v-1zm-3.2-.6h1v1.6h-1v-1.5z"/>
      <path fill="var(--color2, #2e2f42)" d="M1.6 28.3h25.6c.9 0 1.6-.8 1.6-1.6v-2.2c0-.8-.7-1.6-1.6-1.6h-.5V9.6l3-2.8.7.2A1.6 1.6 0 1029 6l-2.4 2.2V7c0-.9-.7-1.6-1.6-1.6H3.7A1.6 1.6 0 002.1 7v16h-.5c-.9 0-1.6.7-1.6 1.5v2.2c0 .9.7 1.6 1.6 1.6zM30.4 4.8a.5.5 0 110 1.1.5.5 0 110-1zM3.2 7c0-.3.2-.5.5-.5h21.4c.2 0 .4.2.4.5v2.3l-1 1V8c0-.3-.2-.6-.5-.6H4.8c-.3 0-.5.3-.5.5v13.4c0 .3.2.5.5.5H24c.3 0 .5-.2.5-.5v-9.7l1.1-1V23H3.2V7zM8 13.9A1.6 1.6 0 109 16.7l1.9.9c.2.1.5 0 .6-.1l3.9-4.5 3.9 2.9c.2.2.5.2.7 0l3.3-3.2v8.2h-18V8.5h18v2.7l-3.7 3.6-3.9-3a.5.5 0 00-.7.1l-4 4.5-1.5-.7v-.2c0-.9-.7-1.6-1.6-1.6zm.5 1.6a.5.5 0 01-1 0 .5.5 0 011 0zm3.3 8.5H17v.6c0 .2-.3.4-.5.4h-4.3a.5.5 0 01-.5-.4V24zM1 24.6c0-.3.3-.5.6-.5h9v.5c0 .9.8 1.6 1.6 1.6h4.3c.9 0 1.6-.7 1.6-1.6v-.5h9.1c.3 0 .5.2.5.5v2.1c0 .4-.2.6-.5.6H1.6a.5.5 0 01-.5-.6v-2.2z"/>
    </symbol>
  </defs>
</svg>
